<svg id="visual" viewBox="0 0 960 540" width="960" height="540" xmlns="http://www.w3.org/2000/svg" xmlns:xlink="http://www.w3.org/1999/xlink" version="1.1"><path d="M0 393L137 403L274 319L411 392L549 363L686 362L823 316L960 332L960 541L823 541L686 541L549 541L411 541L274 541L137 541L0 541Z" fill="#272c37"></path><path d="M0 356L137 366L274 412L411 357L549 414L686 415L823 362L960 416L960 541L823 541L686 541L549 541L411 541L274 541L137 541L0 541Z" fill="#1951a6"></path><path d="M0 424L137 434L274 397L411 419L549 458L686 458L823 448L960 435L960 541L823 541L686 541L549 541L411 541L274 541L137 541L0 541Z" fill="#2563eb"></path><path d="M0 461L137 439L274 461L411 487L549 480L686 432L823 480L960 487L960 541L823 541L686 541L549 541L411 541L274 541L137 541L0 541Z" fill="#1951a6"></path><path d="M0 484L137 500L274 499L411 490L549 506L686 511L823 485L960 481L960 541L823 541L686 541L549 541L411 541L274 541L137 541L0 541Z" fill="#272c37"></path></svg>